<?xml version="1.0" standalone="no"?>
<!DOCTYPE svg PUBLIC "-//W3C//DTD SVG 20010904//EN"
 "http://www.w3.org/TR/2001/REC-SVG-20010904/DTD/svg10.dtd">
<svg version="1.0" xmlns="http://www.w3.org/2000/svg"
 width="200.000000pt" height="200.000000pt" viewBox="0 0 200.000000 200.000000"
 preserveAspectRatio="xMidYMid meet">

<g transform="translate(0.000000,200.000000) scale(0.100000,-0.100000)"
fill="#000000" stroke="none">
<path d="M0 1931 c0 -50 4 -70 14 -74 18 -7 26 1 26 25 0 17 11 18 154 18 145
0 154 -1 159 -20 3 -11 10 -20 15 -20 5 0 12 9 15 20 6 22 37 25 160 13 47 -4
67 -10 67 -20 0 -7 -9 -17 -20 -21 -11 -4 19 -8 70 -9 75 -2 91 1 100 15 8 14
11 15 19 3 7 -12 14 -10 36 8 18 13 42 21 66 21 38 0 39 -1 39 -35 0 -23 5
-35 14 -35 9 0 13 11 12 33 -1 30 1 32 39 38 l40 6 -37 2 c-42 1 -49 8 -41 39
5 20 12 22 73 22 59 0 68 -3 73 -19 6 -26 -24 -54 -48 -45 -12 5 -16 4 -11 -4
3 -6 -2 -16 -13 -22 -17 -9 -19 -18 -15 -67 3 -38 11 -64 24 -78 10 -11 23
-32 29 -47 7 -18 18 -28 31 -28 27 0 25 11 -5 44 -15 16 -25 39 -25 57 l0 31
88 -3 c48 -2 95 1 104 5 16 7 17 5 7 -24 -10 -27 -9 -36 8 -59 11 -14 24 -37
28 -50 l7 -24 17 22 c9 12 30 25 46 29 23 7 34 18 46 51 l15 42 12 -25 c8 -17
19 -26 34 -26 140 2 368 37 258 40 -43 2 -108 9 -136 15 -11 2 -29 -2 -40 -10
-22 -16 -90 -20 -99 -5 -4 6 13 10 45 10 44 0 51 3 48 18 -2 12 -16 19 -46 23
-24 3 -45 2 -48 -3 -11 -18 -33 -6 -45 25 -7 17 -14 35 -16 38 -2 4 5 9 17 12
27 7 25 21 -5 41 -42 28 -31 38 38 36 34 -2 173 -2 310 -1 240 1 247 2 247 21
0 20 -7 20 -1000 20 l-1000 0 0 -69z m348 7 c-2 -14 -10 -23 -20 -22 -10 0
-81 1 -158 2 -133 2 -140 3 -140 22 0 19 7 20 161 20 l160 0 -3 -22z m342 7
c0 -12 -13 -15 -60 -15 -35 0 -60 -4 -60 -10 0 -7 -33 -10 -91 -8 -85 3 -92 5
-100 26 l-8 22 159 0 c136 0 160 -2 160 -15z m61 3 c0 -10 2 -10 6 0 3 8 31
12 88 12 83 0 83 0 80 -25 -3 -36 -5 -36 -63 -25 -29 5 -66 7 -82 3 -18 -3
-30 -1 -30 5 0 5 -9 8 -20 5 -20 -5 -29 15 -13 30 11 12 33 8 34 -5z m392 5
c-7 -2 -21 -2 -30 0 -10 3 -4 5 12 5 17 0 24 -2 18 -5z m-493 -73 c0 -5 -4
-10 -10 -10 -5 0 -10 5 -10 10 0 6 5 10 10 10 6 0 10 -4 10 -10z"/>
<path d="M1460 1910 c0 -18 3 -20 14 -11 8 7 25 9 40 5 16 -4 26 -2 26 5 0 6
-11 11 -24 11 -13 0 -31 3 -40 6 -12 4 -16 0 -16 -16z"/>
<path d="M1563 1913 c-7 -2 -13 -11 -13 -18 0 -16 -34 -38 -43 -28 -9 9 -57
-6 -57 -18 0 -7 10 -9 24 -5 14 3 27 2 30 -2 3 -5 15 -8 28 -6 13 1 40 3 61 3
30 1 37 5 37 21 0 12 -7 20 -16 20 -10 0 -14 -6 -10 -15 4 -11 -1 -15 -19 -15
-13 0 -27 5 -30 10 -3 6 1 10 9 10 9 0 16 4 16 9 0 5 3 16 6 25 6 16 0 19 -23
9z"/>
<path d="M1135 1660 c18 -20 75 -28 75 -12 0 12 -46 32 -72 32 -20 0 -21 -1
-3 -20z"/>
<path d="M1343 1645 c-3 -9 -3 -18 -1 -21 3 -3 8 4 11 16 6 23 -1 27 -10 5z"/>
<path d="M1100 1579 c0 -5 9 -9 20 -9 11 0 20 2 20 4 0 2 -9 6 -20 9 -11 3
-20 1 -20 -4z"/>
<path d="M1307 1573 c-4 -3 -7 -11 -7 -17 0 -6 5 -5 12 2 6 6 9 14 7 17 -3 3
-9 2 -12 -2z"/>
<path d="M1074 1539 c-3 -6 -1 -16 5 -22 8 -8 7 -15 -3 -26 -10 -12 -12 -33
-5 -90 4 -41 6 -77 4 -80 -2 -4 -6 -85 -10 -181 -11 -263 -27 -239 -25 35 3
315 5 295 -25 295 -25 0 -105 -69 -105 -90 0 -6 -14 -29 -30 -52 -16 -22 -30
-50 -30 -62 0 -12 -8 -51 -17 -88 -14 -56 -15 -71 -4 -91 8 -15 10 -37 7 -54
-11 -49 29 -193 54 -193 6 0 5 -8 -2 -19 -10 -16 -9 -25 2 -45 18 -35 29 -33
74 13 40 41 42 70 5 50 -11 -5 -28 -8 -37 -6 -11 3 -5 7 16 12 l33 8 -6 50 -7
51 34 -29 c20 -17 35 -34 34 -40 0 -5 13 -10 29 -11 17 -1 56 -5 87 -9 47 -6
68 -4 118 15 38 14 60 28 60 38 0 8 8 24 17 34 35 39 31 457 -5 500 -5 7 -12
26 -14 42 -4 40 -23 43 -38 7 -15 -37 -50 -71 -50 -50 0 8 5 20 12 27 20 20 1
25 -50 12 -60 -16 -93 -8 -108 24 l-12 25 30 -15 c17 -9 27 -11 24 -5 -5 7 2
11 16 12 23 1 23 1 -2 9 -37 12 -68 11 -76 -1z m132 -110 c6 -10 37 -9 119 3
17 3 19 -2 17 -27 -4 -33 -20 -48 -42 -38 -32 13 -82 15 -111 3 -39 -16 -53
-3 -44 39 5 24 12 31 30 31 13 0 27 -5 31 -11z m-149 -541 c-3 -8 -6 -5 -6 6
-1 11 2 17 5 13 3 -3 4 -12 1 -19z"/>
<path d="M1374 1423 c7 -25 25 -106 26 -116 0 -5 -3 -6 -7 -4 -5 3 -8 -70 -8
-162 0 -107 -4 -173 -11 -182 -6 -8 -14 -23 -17 -34 -7 -19 -7 -19 8 -1 8 10
16 23 17 28 8 22 38 -6 38 -35 0 -29 1 -30 13 -12 38 56 67 274 40 296 -7 6
-13 22 -13 35 0 13 -5 57 -11 99 -10 68 -15 77 -40 90 -36 19 -41 19 -35 -2z"/>
<path d="M196 1077 c3 -10 9 -15 12 -12 3 3 0 11 -7 18 -10 9 -11 8 -5 -6z"/>
<path d="M246 968 c20 -40 40 -80 45 -88 39 -69 80 -163 73 -170 -5 -4 -83
-25 -174 -45 -147 -33 -217 -54 -184 -55 6 0 85 18 175 40 90 22 172 42 182
44 15 4 29 -18 73 -112 30 -63 51 -119 47 -123 -5 -4 -69 -23 -143 -43 -363
-96 -334 -85 -338 -134 -2 -25 1 -42 7 -42 6 0 11 -6 11 -14 0 -20 16 -29 41
-21 16 5 18 10 9 20 -7 8 -9 19 -6 24 4 5 -3 19 -16 30 -29 27 -18 36 43 33
35 -1 51 2 55 12 3 8 58 31 122 51 64 20 137 43 161 51 25 8 50 14 58 14 11 0
73 -118 73 -139 0 -5 -139 -53 -445 -152 -33 -10 -72 -20 -87 -21 -16 -1 -28
-8 -28 -15 0 -7 6 -11 12 -8 7 2 42 13 78 24 36 12 86 25 111 29 44 8 47 8 66
-22 11 -17 23 -48 26 -69 l6 -37 -144 0 c-105 0 -145 3 -148 13 -3 6 -6 0 -6
-15 l-1 -28 999 0 999 0 0 34 0 33 -31 -16 c-26 -13 -74 -17 -272 -19 l-240
-3 -30 31 c-18 18 -25 34 -19 39 5 5 107 48 227 96 l217 87 73 -61 c39 -34 73
-57 75 -51 3 7 -5 18 -17 26 -12 8 -21 22 -21 29 0 8 -11 17 -25 21 -14 3 -22
11 -18 17 3 5 2 8 -3 4 -5 -3 -18 1 -28 9 -18 13 -16 15 25 32 24 11 54 22 67
26 12 4 22 12 22 18 0 5 -6 8 -12 5 -7 -3 -92 -37 -188 -76 l-175 -71 -82 82
c-45 45 -81 84 -79 85 2 2 90 35 197 73 l193 68 60 -45 c34 -26 67 -51 74 -56
7 -6 12 -6 12 0 0 5 -30 31 -67 58 l-68 48 62 21 c34 12 65 24 69 29 8 7 -59
-12 -109 -32 -32 -13 -30 -14 -121 54 -65 48 -66 49 -44 63 29 17 17 14 -116
-27 -111 -34 -103 -35 -181 38 -24 22 -49 41 -54 41 -6 0 -11 6 -11 13 0 8 -4
7 -10 -3 -13 -20 -13 -33 0 -25 10 6 128 -83 129 -97 1 -3 -15 -12 -35 -18
-19 -7 -34 -14 -32 -16 2 -2 49 10 103 27 55 17 115 35 133 40 31 10 38 6 107
-43 41 -29 75 -56 75 -60 0 -3 -26 -15 -57 -26 -32 -11 -118 -41 -192 -67
l-134 -47 -68 68 c-49 49 -65 71 -56 77 8 6 6 7 -6 3 -10 -3 -25 -6 -33 -6 -8
0 -14 -4 -14 -10 0 -5 6 -7 13 -5 7 3 43 -25 80 -63 l67 -68 -37 -13 c-67 -22
-113 -44 -113 -53 0 -5 12 -2 28 5 15 8 51 22 81 32 l53 17 79 -78 c43 -43 79
-81 79 -84 0 -3 -21 -15 -47 -26 -107 -47 -156 -64 -177 -60 -11 3 -33 7 -48
11 -25 5 -83 48 -162 120 l-29 27 -65 -18 c-53 -14 -62 -19 -44 -25 13 -5 36
-2 60 8 40 15 41 15 86 -16 25 -18 63 -47 83 -67 24 -22 52 -37 78 -41 22 -3
33 -8 25 -11 -8 -3 -31 -11 -50 -20 -19 -8 -40 -16 -46 -17 -5 -2 -30 -12 -53
-24 -41 -19 -60 -20 -369 -21 -179 0 -323 3 -319 6 7 7 253 100 335 125 39 13
62 25 62 35 0 13 -4 13 -27 0 -16 -7 -73 -30 -128 -50 -55 -20 -109 -41 -120
-46 -103 -45 -192 -70 -251 -70 -55 0 -64 3 -64 18 0 10 -9 44 -20 75 -11 32
-18 62 -15 66 2 5 17 12 32 16 16 3 78 23 138 44 61 21 162 55 225 76 63 21
120 40 126 42 7 3 33 -29 58 -71 59 -93 68 -101 89 -78 15 17 15 18 -10 17
-14 0 -29 7 -33 15 -4 8 -22 39 -39 69 -32 54 -31 70 7 71 6 0 12 5 12 10 0
14 7 16 -151 -40 -78 -27 -147 -50 -154 -50 -7 0 -40 59 -74 132 -50 106 -59
134 -49 143 7 7 69 26 137 44 69 17 127 33 129 36 10 10 -24 4 -98 -16 -132
-36 -184 -48 -191 -43 -4 2 -56 101 -115 219 -59 118 -111 215 -116 215 -4 0
9 -33 28 -72z m1154 -908 l21 -30 -97 0 c-54 0 -95 2 -92 5 8 8 122 54 135 55
6 0 21 -13 33 -30z"/>
<path d="M660 967 c0 -4 45 -62 100 -130 140 -170 140 -170 140 -157 0 7 -44
64 -97 127 -54 63 -108 126 -120 141 -13 15 -23 24 -23 19z"/>
<path d="M1470 960 c0 -5 5 -10 11 -10 5 0 7 5 4 10 -3 6 -8 10 -11 10 -2 0
-4 -4 -4 -10z"/>
<path d="M1540 909 c14 -14 33 -28 43 -32 9 -3 43 -24 75 -45 81 -55 83 -55
76 -38 -3 9 -10 16 -16 16 -5 0 -42 21 -81 46 -40 26 -83 54 -97 62 l-25 15
25 -24z"/>
<path d="M1305 880 c-3 -5 -1 -10 4 -10 6 0 11 5 11 10 0 6 -2 10 -4 10 -3 0
-8 -4 -11 -10z"/>
<path d="M1390 860 c-6 -12 -9 -24 -7 -27 3 -2 11 5 17 17 6 12 9 24 7 27 -3
2 -11 -5 -17 -17z"/>
<path d="M140 860 c-20 -6 -21 -8 -5 -8 11 0 34 4 50 8 27 7 27 8 5 8 -14 0
-36 -4 -50 -8z"/>
<path d="M555 850 c-18 -8 -18 -9 5 -9 14 0 34 4 45 9 18 8 18 9 -5 9 -14 0
-34 -4 -45 -9z"/>
<path d="M31 839 c-18 -6 -31 -12 -28 -15 3 -3 27 1 53 10 53 16 30 20 -25 5z"/>
<path d="M1340 841 c0 -10 19 -25 25 -20 1 2 -3 10 -11 17 -8 7 -14 8 -14 3z"/>
<path d="M1185 830 c-3 -5 -2 -10 4 -10 5 0 13 5 16 10 3 6 2 10 -4 10 -5 0
-13 -4 -16 -10z"/>
<path d="M1754 771 c7 -11 46 -35 46 -28 0 3 -12 12 -26 22 -15 9 -23 12 -20
6z"/>
<path d="M906 725 c4 -8 10 -15 15 -15 4 0 6 7 3 15 -4 8 -10 15 -15 15 -4 0
-6 -7 -3 -15z"/>
<path d="M1823 727 c23 -19 22 -24 -9 -31 -15 -4 -24 -9 -22 -12 3 -2 21 2 42
9 l36 12 -32 18 c-18 10 -25 12 -15 4z"/>
<path d="M1948 733 c7 -3 16 -2 19 1 4 3 -2 6 -13 5 -11 0 -14 -3 -6 -6z"/>
<path d="M785 685 c-22 -7 -31 -13 -20 -13 11 0 36 6 55 13 45 17 17 18 -35 0z"/>
<path d="M1080 470 c-8 -5 -12 -11 -9 -14 7 -8 49 5 49 15 0 12 -21 11 -40 -1z"/>
<path d="M1248 324 c-10 -9 13 -54 27 -54 17 0 16 -47 -1 -61 -9 -7 -14 -8
-14 -1 0 6 5 12 12 14 8 3 2 19 -18 46 -22 32 -35 41 -54 40 -14 -1 -32 2 -39
7 -11 6 -13 4 -8 -9 4 -10 7 -21 7 -26 0 -7 83 -73 119 -95 11 -6 13 -4 8 8
-3 9 0 20 7 24 9 5 12 20 9 40 -3 18 -9 30 -14 28 -4 -3 -14 6 -21 20 -8 14
-17 23 -20 19z m2 -82 c0 -10 -32 22 -42 42 -6 14 -1 11 16 -8 14 -16 26 -31
26 -34z"/>
<path d="M140 285 c-11 -13 -10 -14 5 -9 13 5 16 4 11 -4 -4 -7 -1 -12 9 -12
10 0 15 7 13 17 -4 23 -22 27 -38 8z"/>
<path d="M200 290 c-8 -5 -12 -11 -10 -14 3 -2 14 2 24 10 22 15 10 19 -14 4z"/>
<path d="M1310 271 c0 -5 5 -13 10 -16 6 -3 10 -2 10 4 0 5 -4 13 -10 16 -5 3
-10 2 -10 -4z"/>
<path d="M983 208 c-22 -27 -33 -57 -27 -72 7 -18 39 -22 49 -6 3 5 0 7 -8 4
-20 -7 -27 28 -12 56 9 16 14 19 20 10 4 -7 2 -16 -6 -22 -10 -6 -7 -7 10 -3
16 5 21 4 17 -4 -4 -6 -2 -11 3 -11 15 0 14 12 -5 38 -17 25 -27 27 -41 10z"/>
<path d="M35 180 c-3 -5 -1 -10 4 -10 6 0 11 5 11 10 0 6 -2 10 -4 10 -3 0 -8
-4 -11 -10z"/>
<path d="M1075 160 c-3 -5 -1 -10 4 -10 6 0 11 5 11 10 0 6 -2 10 -4 10 -3 0
-8 -4 -11 -10z"/>
<path d="M1070 131 c0 -5 5 -13 10 -16 6 -3 10 -2 10 4 0 5 -4 13 -10 16 -5 3
-10 2 -10 -4z"/>
</g>
</svg>
