<?xml version="1.0" standalone="no"?>
<!DOCTYPE svg PUBLIC "-//W3C//DTD SVG 20010904//EN"
 "http://www.w3.org/TR/2001/REC-SVG-20010904/DTD/svg10.dtd">
<svg version="1.0" xmlns="http://www.w3.org/2000/svg"
 width="820.000000pt" height="524.000000pt" viewBox="0 0 820.000000 524.000000"
 preserveAspectRatio="xMidYMid meet">

<g transform="translate(0.000000,524.000000) scale(0.100000,-0.100000)"
fill="#000000" stroke="none">
<path d="M3115 4680 c-179 -16 -346 -99 -490 -244 -125 -126 -188 -239 -222
-399 -19 -93 -12 -283 15 -382 24 -88 -11 -4 1015 -2418 88 -208 163 -374 167
-370 4 4 32 188 63 408 31 220 120 846 197 1390 166 1172 164 1154 150 1288
-22 202 -98 366 -229 498 -131 131 -292 207 -484 228 -53 6 -98 10 -99 10 -2
-1 -39 -5 -83 -9z"/>
<path d="M4883 4681 c-190 -31 -350 -116 -481 -256 -124 -133 -195 -309 -209
-517 l-6 -98 105 0 c58 0 129 -5 158 -10 49 -9 90 -32 90 -51 0 -4 -35 -26
-77 -49 -144 -77 -199 -154 -209 -298 -5 -62 3 -137 40 -387 81 -542 144 -960
196 -1310 27 -187 59 -396 69 -465 11 -69 27 -180 37 -248 10 -67 20 -122 24
-122 3 0 30 57 59 127 61 147 993 2361 1052 2500 62 147 83 240 83 373 0 138
-18 216 -78 345 -101 213 -313 394 -531 450 -71 19 -249 27 -322 16z"/>
<path d="M6360 3635 c-159 -27 -289 -94 -405 -209 -129 -128 -162 -188 -363
-656 -77 -179 -187 -435 -245 -570 -58 -135 -238 -555 -401 -934 -163 -379
-295 -691 -293 -692 2 -2 172 112 378 254 445 307 1541 1062 1758 1211 259
178 349 267 430 422 65 122 86 211 85 364 0 152 -22 248 -85 370 -125 246
-339 398 -619 440 -111 17 -139 17 -240 0z"/>
</g>
</svg>
